<?xml version="1.0" encoding="iso-8859-1"?>
<!-- Generator: Adobe Illustrator 19.0.0, SVG Export Plug-In . SVG Version: 6.00 Build 0)  -->
<svg version="1.1" id="Capa_1" xmlns="http://www.w3.org/2000/svg" xmlns:xlink="http://www.w3.org/1999/xlink" x="0px" y="0px"
	 viewBox="0 0 512 512" style="enable-background:new 0 0 512 512;" xml:space="preserve">
<path id="SVGCleanerId_0" style="fill:#7E9EDC;" d="M137.638,187.45v-51.097H59.959v51.097c0,22.131-11.231,42.75-29.824,54.753
	l-1.859,1.2C15.324,251.765,7.5,266.128,7.5,281.545v138.62c0,10.631,8.618,19.249,19.249,19.249h144.1
	c10.631,0,19.249-8.618,19.249-19.249v-138.62c0-15.417-7.824-29.78-20.776-38.141l-1.859-1.2
	C148.869,230.2,137.638,209.581,137.638,187.45z"/>
<g>
	<path id="SVGCleanerId_0_1_" style="fill:#7E9EDC;" d="M137.638,187.45v-51.097H59.959v51.097c0,22.131-11.231,42.75-29.824,54.753
		l-1.859,1.2C15.324,251.765,7.5,266.128,7.5,281.545v138.62c0,10.631,8.618,19.249,19.249,19.249h144.1
		c10.631,0,19.249-8.618,19.249-19.249v-138.62c0-15.417-7.824-29.78-20.776-38.141l-1.859-1.2
		C148.869,230.2,137.638,209.581,137.638,187.45z"/>
</g>
<path style="fill:#D76976;" d="M150.518,136.353H47.08c-7.309,0-13.234-5.925-13.234-13.234v-18.682
	c0-7.309,5.925-13.234,13.234-13.234h103.438c7.309,0,13.234,5.925,13.234,13.234v18.682
	C163.751,130.428,157.826,136.353,150.518,136.353z"/>
<path style="opacity:0.2;fill:#893529;enable-background:new    ;" d="M47.08,91.203c-7.309,0-13.234,5.925-13.234,13.234v18.682
	c0,7.309,5.925,13.234,13.234,13.234h66.674c-20.381-8.156-20.878-34.048-12.556-45.15H47.08z"/>
<rect x="7.5" y="298.139" style="fill:#FFF4D1;" width="182.6" height="86.25"/>
<g>
	<ellipse style="fill:#F895C6;" cx="40.35" cy="359.049" rx="21.566" ry="17.17"/>
	<ellipse style="fill:#F895C6;" cx="157.25" cy="359.049" rx="21.566" ry="17.17"/>
</g>
<path style="opacity:0.15;fill:#003A63;enable-background:new    ;" d="M58.773,260.493c20.954-25.085,24.578-52.08,24.578-105.626
	c17.819,0,40.49,0,54.287,0v-18.514H59.959v51.097c0,22.131-11.231,42.75-29.824,54.753l-1.859,1.2
	C15.324,251.765,7.5,266.128,7.5,281.545v138.62c0,10.631,8.618,19.249,19.249,19.249h71.74
	C28.257,402.099,30.636,294.177,58.773,260.493z"/>
<path style="fill:#7E9EDC;" d="M318.04,165.888l-17.476-48.015l-72.994,26.568l17.476,48.015
	c7.569,20.797,4.067,44.013-9.299,61.652l-1.337,1.764c-9.311,12.287-11.75,28.46-6.478,42.947l47.411,130.26
	c3.636,9.99,14.682,15.14,24.671,11.504l135.41-49.285c9.99-3.636,15.14-14.682,11.504-24.671l-47.411-130.26
	c-5.273-14.487-17.537-25.308-32.568-28.735l-2.158-0.492C343.216,202.218,325.61,186.684,318.04,165.888z"/>
<path style="fill:#D76976;" d="M312.667,113.467l-97.2,35.378c-6.868,2.5-14.462-1.041-16.962-7.91l-6.39-17.555
	c-2.5-6.868,1.041-14.462,7.91-16.962l97.2-35.378c6.868-2.5,14.462,1.041,16.962,7.91l6.39,17.555
	C323.077,103.373,319.535,110.967,312.667,113.467z"/>
<rect x="242.848" y="280.59" transform="matrix(-0.9397 0.342 -0.342 -0.9397 758.8573 513.6323)" style="fill:#FFF4D1;" width="182.6" height="86.25"/>
<g>
	
		<ellipse transform="matrix(-0.342 -0.9397 0.9397 -0.342 41.5824 745.0875)" style="fill:#F895C6;" cx="281.655" cy="357.985" rx="17.937" ry="22.524"/>
	
		<ellipse transform="matrix(0.342 0.9397 -0.9397 0.342 557.9664 -164.4151)" style="fill:#F895C6;" cx="396.385" cy="316.213" rx="17.937" ry="22.524"/>
</g>
<ellipse transform="matrix(-0.342 -0.9397 0.9397 -0.342 144.0325 749.1727)" style="fill:#495059;" cx="334.31" cy="324.159" rx="20.321" ry="18.16"/>
<path style="opacity:0.2;fill:#893529;enable-background:new    ;" d="M200.025,106.418c-6.868,2.5-10.409,10.094-7.91,16.962
	l6.39,17.556c2.5,6.868,10.094,10.409,16.962,7.91l62.653-22.804c-21.941-0.693-31.264-24.854-27.241-38.133L200.025,106.418z"/>
<path style="opacity:0.15;fill:#003A63;enable-background:new    ;" d="M260.916,264.622c11.111-30.739,13.281-60.468-5.032-110.785
	c16.744-6.094,38.048-13.848,51.013-18.567l-6.332-17.397l-72.994,26.568l17.476,48.015c7.569,20.796,4.068,44.013-9.299,61.652
	l-1.337,1.764c-9.311,12.287-11.75,28.46-6.478,42.947l47.411,130.26c3.636,9.99,14.681,15.14,24.671,11.504l53.787-19.577
	C275.044,409.962,245.996,305.898,260.916,264.622z"/>
<circle style="fill:#FCDF81;" cx="429.15" cy="194.129" r="75.35"/>
<g>
	<path style="fill:#F3BB62;" d="M375.872,140.847c-14.574,14.574-21.919,33.633-22.056,52.735
		c19.102-0.137,38.161-7.482,52.735-22.056s21.919-33.633,22.056-52.735C409.505,118.928,390.446,126.273,375.872,140.847z"/>
	<path style="fill:#F3BB62;" d="M482.431,247.406c-14.574,14.574-33.633,21.919-52.735,22.056
		c0.137-19.102,7.482-38.161,22.056-52.735s33.633-21.919,52.735-22.056C504.35,213.773,497.005,232.832,482.431,247.406z"/>
</g>
<path style="opacity:0.2;fill:#AC6A22;enable-background:new    ;" d="M490.281,238.176
	c-83.411,24.756-135.791-58.269-86.058-115.174c-10.354,3.621-20.076,9.569-28.351,17.844c-29.425,29.426-29.425,77.134,0,106.559
	c29.426,29.425,77.134,29.425,106.559,0C485.339,244.498,487.947,241.406,490.281,238.176z"/>
<path d="M98.799,355.268c6.804,0,13.274-2.946,17.75-8.082c2.722-3.123,2.396-7.86-0.726-10.582
	c-3.122-2.722-7.86-2.396-10.582,0.726c-1.627,1.867-3.975,2.938-6.441,2.938c-2.467,0-4.814-1.071-6.441-2.938
	c-2.722-3.122-7.46-3.447-10.582-0.726c-3.123,2.721-3.448,7.459-0.727,10.582C85.525,352.322,91.995,355.268,98.799,355.268z
	 M144.677,349.42c4.143,0,7.5-3.358,7.5-7.5v-7.616c0-4.142-3.357-7.5-7.5-7.5s-7.5,3.358-7.5,7.5v7.616
	C137.177,346.062,140.534,349.42,144.677,349.42z M52.921,349.42c4.143,0,7.5-3.358,7.5-7.5v-7.616c0-4.142-3.357-7.5-7.5-7.5
	s-7.5,3.358-7.5,7.5v7.616C45.421,346.062,48.778,349.42,52.921,349.42z M281.699,325.139c-1.417-3.892-5.72-5.9-9.613-4.482
	c-3.893,1.417-5.899,5.721-4.482,9.613l3.307,9.084c1.108,3.046,3.984,4.937,7.049,4.937c0.851,0,1.718-0.146,2.564-0.454
	c3.893-1.417,5.9-5.721,4.482-9.613L281.699,325.139z M389.347,285.96c-1.416-3.892-5.718-5.902-9.612-4.483
	c-3.893,1.417-5.899,5.72-4.483,9.612l3.306,9.085c1.108,3.046,3.984,4.938,7.049,4.938c0.851,0,1.717-0.146,2.563-0.454
	c3.893-1.417,5.899-5.72,4.483-9.612L389.347,285.96z M173.389,237.102l-1.858-1.2c-16.526-10.669-26.393-28.782-26.393-48.453
	v-43.597h5.38c11.433,0,20.733-9.301,20.733-20.734v-18.682c0-11.433-9.301-20.734-20.733-20.734H47.08
	c-11.433,0-20.734,9.301-20.734,20.734v18.682c0,11.433,9.302,20.734,20.734,20.734h5.38v43.597
	c0,19.671-9.866,37.784-26.393,48.452l-1.859,1.201C9.05,246.888,0,263.503,0,281.545v120.616c0,4.142,3.357,7.5,7.5,7.5
	s7.5-3.358,7.5-7.5v-10.27h167.598v28.273c0,6.478-5.271,11.749-11.749,11.749h-144.1c-2.821,0-5.548-1.014-7.677-2.855
	c-3.133-2.707-7.869-2.365-10.579,0.769c-2.709,3.134-2.364,7.87,0.768,10.579c4.855,4.196,11.065,6.507,17.487,6.507h144.1
	c14.749,0,26.749-12,26.749-26.749v-138.62C197.598,263.503,188.548,246.889,173.389,237.102z M47.08,128.853
	c-3.162,0-5.734-2.572-5.734-5.734v-18.682c0-3.162,2.572-5.734,5.734-5.734h103.437c3.161,0,5.733,2.572,5.733,5.734v18.682
	c0,3.162-2.572,5.734-5.733,5.734H47.08z M182.598,376.891H15v-71.253h167.598V376.891z M182.598,290.638H15v-9.093
	c0-12.927,6.483-24.83,17.343-31.84l1.859-1.2c20.825-13.444,33.258-36.268,33.258-61.055v-43.597h62.678v43.597
	c0,24.787,12.433,47.61,33.257,61.055l1.859,1.2c10.86,7.012,17.344,18.915,17.344,31.841L182.598,290.638L182.598,290.638z
	 M429.182,276.936c0.153,0.01,0.305,0.025,0.461,0.027h0.055c0.308,0,0.61-0.024,0.908-0.061
	c20.729-0.361,41.347-8.41,57.129-24.192C503.382,237.062,512,216.256,512,194.127s-8.618-42.935-24.264-58.581
	c-0.669-0.669-1.347-1.325-2.033-1.966c-3.025-2.829-7.771-2.669-10.601,0.355c-2.829,3.026-2.67,7.771,0.357,10.601
	c0.561,0.526,1.118,1.063,1.668,1.614c11.568,11.568,18.077,26.307,19.528,41.444c-18.972,1.895-36.572,10.194-50.207,23.83
	c-13.635,13.635-21.934,31.235-23.829,50.206c-15.136-1.452-29.878-7.961-41.444-19.527c-11.567-11.568-18.076-26.307-19.528-41.444
	c18.972-1.896,36.572-10.195,50.207-23.83c13.641-13.642,21.94-31.252,23.831-50.234c4.218,0.407,8.433,1.202,12.591,2.419
	c3.974,1.161,8.141-1.117,9.305-5.092c1.163-3.975-1.116-8.141-5.092-9.305c-29.106-8.52-60.496-0.5-81.922,20.926
	c-15.348,15.349-23.388,35.271-24.151,55.421c-9.707-6.744-17.229-16.38-21.328-27.641l-14.91-40.968l5.055-1.84
	c10.742-3.91,16.302-15.832,12.393-26.575l-6.39-17.556c-3.911-10.744-15.832-16.301-26.575-12.392L197.462,99.37
	c-5.205,1.894-9.36,5.702-11.7,10.721c-2.341,5.019-2.587,10.65-0.692,15.854l6.39,17.556c3.062,8.411,11.032,13.643,19.504,13.643
	c2.35,0,4.739-0.403,7.071-1.251l5.055-1.84l14.911,40.967c6.728,18.484,3.651,38.879-8.227,54.556l-1.338,1.765
	c-10.897,14.38-13.72,33.087-7.548,50.042l5.672,15.585c0.001,0.003,0.001,0.005,0.002,0.008c0.001,0.002,0.002,0.003,0.002,0.005
	l29.496,81.04c0.001,0.002,0.001,0.004,0.002,0.007c0.001,0.001,0.001,0.003,0.002,0.004l12.233,33.612
	c2.443,6.714,7.355,12.075,13.831,15.094c3.597,1.677,7.434,2.521,11.288,2.521c3.085,0,6.18-0.541,9.165-1.628l135.41-49.285
	c13.859-5.045,21.031-20.424,15.987-34.284l-12.235-33.616l0,0l-19.589-53.818c2.328,0.196,4.662,0.311,6.997,0.311
	C429.161,276.937,429.171,276.936,429.182,276.936z M457.056,222.03c10.741-10.741,24.491-17.425,39.352-19.3
	c-1.826,14.405-8.242,28.334-19.28,39.373c-11.04,11.04-24.967,17.455-39.372,19.28C439.63,246.522,446.314,232.772,457.056,222.03z
	 M381.174,146.15c10.81-10.809,24.719-17.444,39.379-19.32c-1.869,14.877-8.555,28.642-19.306,39.393
	c-10.741,10.741-24.491,17.425-39.352,19.301C363.721,171.118,370.136,157.189,381.174,146.15z M225.005,137.392
	c-0.002,0.001-0.004,0.002-0.006,0.002l-12.097,4.403c-2.975,1.082-6.268-0.456-7.349-3.426l-6.39-17.556
	c-0.524-1.439-0.456-2.996,0.191-4.384c0.646-1.388,1.796-2.441,3.235-2.964l97.2-35.378c0.645-0.235,1.305-0.346,1.955-0.346
	c2.343,0,4.547,1.447,5.393,3.773l6.39,17.555c1.081,2.972-0.456,6.269-3.428,7.35l-12.1,4.404c-0.001,0-0.002,0.001-0.003,0.001
	c-0.001,0-0.002,0.001-0.003,0.001l-72.986,26.564C225.009,137.391,225.007,137.391,225.005,137.392z M234.981,296.252
	c-4.422-12.146-2.4-25.549,5.406-35.851l1.338-1.765c14.971-19.755,18.847-45.455,10.369-68.747l-14.911-40.967l58.898-21.437
	l14.91,40.968c6.478,17.797,19.735,32.377,36.706,40.576c2.906,16.011,10.517,31.328,22.869,43.68
	c0.963,0.963,1.946,1.893,2.944,2.798l-135.42,49.289L234.981,296.252z M439.882,369.191c2.216,6.087-0.935,12.843-7.022,15.059
	l-135.41,49.285c-2.948,1.072-6.137,0.934-8.983-0.393c-2.844-1.326-5.001-3.681-6.074-6.629l-9.67-26.568l157.49-57.322
	L439.882,369.191z M425.081,328.527l-157.49,57.322l-24.369-66.955l144.97-52.765c5.371,3.053,11.008,5.467,16.807,7.225
	L425.081,328.527z M358.424,315.374c-5.247-14.414-20.332-22.205-33.628-17.367c-6.592,2.399-11.717,7.459-14.43,14.249
	c-2.596,6.494-2.655,13.835-0.167,20.67c4.191,11.515,14.66,18.802,25.48,18.802c2.725,0,5.473-0.462,8.147-1.436
	C357.122,345.454,363.67,329.789,358.424,315.374L358.424,315.374z M338.696,336.197c-5.523,2.011-11.984-1.758-14.401-8.402
	c-1.226-3.366-1.226-6.907,0-9.973c1.107-2.77,3.107-4.802,5.632-5.72c1.007-0.367,2.044-0.541,3.083-0.541
	c4.66,0,9.342,3.511,11.318,8.942C346.746,327.147,344.22,334.187,338.696,336.197z"/>
<g>
</g>
<g>
</g>
<g>
</g>
<g>
</g>
<g>
</g>
<g>
</g>
<g>
</g>
<g>
</g>
<g>
</g>
<g>
</g>
<g>
</g>
<g>
</g>
<g>
</g>
<g>
</g>
<g>
</g>
</svg>
